<svg xmlns="http://www.w3.org/2000/svg" width="114.833" height="132.5" viewBox="0 0 114.833 132.5">
  <g id="INIT_로고" data-name="INIT 로고" transform="translate(-125.75 -317.084)">
    <g id="패스_53" data-name="패스 53" transform="translate(125.75 317.084)" fill="#fff">
      <path d="M 109.8330383300781 108.2801513671875 L 4.999995231628418 108.2801513671875 L 4.999995231628418 99.51760864257813 C 4.999995231628418 93.10144805908203 5.646095275878906 86.69078826904297 6.920335292816162 80.46371459960938 C 8.161675453186035 74.39745330810547 10.01391506195068 68.43051147460938 12.42561531066895 62.72863006591797 C 14.79399490356445 57.129150390625 17.72565460205078 51.72807312011719 21.1391544342041 46.67541122436523 C 24.52111625671387 41.66947174072266 28.40521621704102 36.96193313598633 32.68355560302734 32.68357086181641 C 36.9619140625 28.40521240234375 41.66945648193359 24.5211124420166 46.67539596557617 21.1391716003418 C 51.72805404663086 17.72565269470215 57.12913513183594 14.7939920425415 62.72861480712891 12.42561149597168 C 68.43049621582031 10.01393222808838 74.39745330810547 8.161691665649414 80.46371459960938 6.920351982116699 C 86.69077301025391 5.646111965179443 93.10143280029297 5.000011920928955 99.51759338378906 5.000011920928955 L 109.8330383300781 5.000011920928955 L 109.8330383300781 108.2801513671875 Z" stroke="none"/>
      <path d="M 99.51759338378906 10 C 50.15741729736328 10 9.999992370605469 50.15742111206055 9.999992370605469 99.51759338378906 L 9.999992370605469 103.280143737793 L 104.8330154418945 103.280143737793 L 104.8330154418945 10 L 99.51759338378906 10 M 99.51759338378906 0 L 114.8330154418945 0 L 114.8330154418945 113.280143737793 L -7.62939453125e-06 113.280143737793 L -7.62939453125e-06 99.51759338378906 C -7.62939453125e-06 44.55554962158203 44.5555419921875 0 99.51759338378906 0 Z" stroke="none" fill="#000"/>
    </g>
    <g id="패스_52" data-name="패스 52" transform="translate(125.75 317.084)" fill="#fff">
      <path d="M 109.8330383300781 108.2801513671875 L 4.999995231628418 108.2801513671875 L 4.999995231628418 5.000011920928955 L 15.3154354095459 5.000011920928955 C 21.73159599304199 5.000011920928955 28.14225578308105 5.646111965179443 34.36931610107422 6.920351982116699 C 40.43557357788086 8.161691665649414 46.40253448486328 10.01393222808838 52.10441589355469 12.42561149597168 C 57.70389556884766 14.7939920425415 63.10497665405273 17.72565269470215 68.15763854980469 21.1391716003418 C 73.16357421875 24.5211124420166 77.87111663818359 28.40521240234375 82.14947509765625 32.68357086181641 C 86.42781829833984 36.96193313598633 90.31191253662109 41.66947174072266 93.69387817382813 46.67541122436523 C 97.10737609863281 51.72807312011719 100.0390319824219 57.129150390625 102.4074172973633 62.72863006591797 C 104.8191146850586 68.43051147460938 106.6713562011719 74.39745330810547 107.9126968383789 80.46371459960938 C 109.1869354248047 86.69078826904297 109.8330383300781 93.10144805908203 109.8330383300781 99.51760864257813 L 109.8330383300781 108.2801513671875 Z" stroke="none"/>
      <path d="M 9.999992370605469 10 L 9.999992370605469 103.280143737793 L 104.8330154418945 103.280143737793 L 104.8330154418945 99.51759338378906 C 104.8330154418945 50.15742111206055 64.67559051513672 10 15.31541442871094 10 L 9.999992370605469 10 M -7.62939453125e-06 0 L 15.31541442871094 0 C 70.27748870849609 0 114.8330154418945 44.55554962158203 114.8330154418945 99.51759338378906 L 114.8330154418945 113.280143737793 L -7.62939453125e-06 113.280143737793 L -7.62939453125e-06 0 Z" stroke="none" fill="#000"/>
    </g>
    <g id="패스_51" data-name="패스 51" transform="translate(125.75 319.163)" fill="#fff">
      <path d="M 79.4990234375 124.2263336181641 L 4.999993324279785 108.3357696533203 L 4.999993324279785 5.159867763519287 C 10.32199668884277 5.504165172576904 15.41665077209473 6.403315544128418 20.19903564453125 7.84542179107666 C 26.13236808776855 9.634588241577148 31.74059677124023 12.30654716491699 36.86795043945313 15.78708839416504 C 46.52980422973633 22.34571266174316 54.78363800048828 31.93735885620117 61.40018081665039 44.29560852050781 C 67.50753784179688 55.70281600952148 72.17626190185547 69.34373474121094 75.27664184570313 84.83946228027344 C 76.71830749511719 92.04483795166016 77.81399536132813 99.65423583984375 78.5333251953125 107.4562759399414 C 79.0394287109375 112.9457702636719 79.36260223388672 118.5637741088867 79.4990234375 124.2263336181641 Z" stroke="none"/>
      <path d="M 9.999992370605469 10.72798919677734 L 9.999992370605469 104.2897796630859 L 74.27235412597656 117.9990158081055 C 71.79731750488281 67.38819885253906 53.79276657104492 17.30462646484375 9.999992370605469 10.72798919677734 M -7.62939453125e-06 0 C 62.72365570068359 0 84.57357788085938 68.35447692871094 84.57357788085938 130.4212188720703 L -7.62939453125e-06 112.3817443847656 L -7.62939453125e-06 0 Z" stroke="none" fill="#000"/>
    </g>
  </g>
</svg>
